# xmcd
# 
# Track frame offsets:
#     150
#     12571
#     23972
#     34156
#     47646
#     60385
#     71234
#     83561
#     97657
#     107923
#     120095
#     132747
#     143674
#     159962
# 
# Disc length: 2309
# 
# Revision: 1
# Processed by: cddbd v1.5.2PL0 Copyright (c) Steve Scherf et al.
# Submitted via: fre:ac v1.0.17
# 
DISCID=b009030e
DTITLE=Various Artist - GOING TO CHICAGO -- Chicago Blues 1951-1974
DYEAR=0
DGENRE=Blues
TTITLE0=Robert Jr. Lockwood - Dust My Broom
TTITLE1=Johnny Shines - Evening Sun
TTITLE2=Billy Boy Arnold - I Ain't Got You
TTITLE3=Eddie Taylor - Big Town Playboy
TTITLE4=Elmore James - Cry For Me Baby
TTITLE5=Jimmy Reed - Going To New York
TTITLE6=Otis Rush - Double Trouble
TTITLE7=Memphis Slim - Messin' Around
TTITLE8=Junior Wells - Messin' With The Kid
TTITLE9=Earl Hooker - Blue Guitar
TTITLE10=Ricky Allen - Cut You A-Loose
TTITLE11=Magic Sam - Out Of Bad Luck
TTITLE12=Hound dog Taylor and The Houserockers - Give Me Back My Wig
TTITLE13=Fenton Robinson - Somebody Loan Me A Dime
EXTD=Blues and Soul Records Vol.43
EXTT0=
EXTT1=
EXTT2=
EXTT3=
EXTT4=
EXTT5=
EXTT6=
EXTT7=
EXTT8=
EXTT9=
EXTT10=
EXTT11=
EXTT12=
EXTT13=
PLAYORDER=
